<?xml version="1.0" encoding="UTF-8"?>
<svg width="221px" height="37px" viewBox="0 0 221 37" version="1.1" xmlns="http://www.w3.org/2000/svg" xmlns:xlink="http://www.w3.org/1999/xlink">
    <!-- Generator: sketchtool 52.2 (67145) - http://www.bohemiancoding.com/sketch -->
    <title>7CB46774-4A52-4780-97A5-EF7FD8EA9AB0</title>
    <desc>Created with sketchtool.</desc>
    <g id="Page-1" stroke="none" stroke-width="1" fill="none" fill-rule="evenodd">
        <g id="Home" transform="translate(-250.000000, -32.000000)">
            <g id="logo" transform="translate(250.000000, 32.000000)">
                <path d="M30.8220058,0.450166667 L30.8220058,7.74477273 L17.9240749,7.74477273 C17.9240749,7.74477273 8.73738147,7.57098485 8.73738147,17.9915303 C8.73738147,28.4120758 15.27433,28.7596515 15.27433,28.7596515 L39.4437848,28.7596515 L39.4437848,36.2280455 L14.5676175,36.2280455 C14.5676175,36.2280455 0.433366832,34.838303 0.433366832,17.8177424 C0.433366832,0.797742424 14.0374407,0.450166667 14.0374407,0.450166667 L30.8220058,0.450166667" id="Fill-1" fill="#244069"></path>
                <path d="M112.237454,25.3618182 C112.237454,31.7560909 107.162335,36.3446515 101.057614,36.5425455 L70.9605442,36.5425455 L70.9246676,28.786 L70.9246676,28.727697 L100.809325,28.727697 L101.294514,28.6464091 C103.11568,28.2736061 104.28708,27.4467121 104.28708,25.3618182 C104.28708,23.5336818 103.825809,22.6137273 102.145872,22.2756818 L81.8567873,22.2756818 C75.0066301,23.2421667 70.8540533,18.3043485 70.8540533,11.7940303 C70.8540533,4.30545455 76.5681174,0.334121212 83.3231731,0.963121212 L108.972111,0.963121212 L108.972111,8.77740909 L82.8385539,8.77740909 C80.7560013,8.49822727 78.8163858,8.99884848 78.8163858,11.7940303 C78.8163858,13.2846818 79.1238997,13.9248939 79.2537389,14.1468939 C79.4547619,14.2281818 80.1056664,14.5662273 80.4012214,14.5662273 C81.5247861,14.4613939 102.228445,14.4613939 102.228445,14.4613939 C102.228445,14.4613939 102.926616,14.4496212 103.944259,14.6592879 C109.232359,15.7306061 112.237454,19.9699091 112.237454,25.3618182" id="Fill-2" fill="#244069"></path>
                <path d="M68.2071557,36.5425455 L50.3132627,36.5425455 C45.5593254,36.5425455 41.6920532,32.7354697 41.6920532,28.0549697 L41.6920532,8.62043939 C41.6920532,8.24315152 41.3799835,7.93593939 40.9967301,7.93593939 L33.1961271,7.93593939 L33.1961271,0.132863636 L40.9967301,0.132863636 C45.7512369,0.132863636 49.6185091,3.93993939 49.6185091,8.62043939 L49.6185091,28.0549697 C49.6185091,28.4322576 49.9305787,28.7394697 50.3132627,28.7394697 L68.2071557,28.7394697 L68.2071557,36.5425455" id="Fill-3" fill="#FF8A00"></path>
                <path d="M142.656844,10.5096818 L137.057813,10.5096818 C137.176263,11.1515758 137.454164,11.8069242 138.0709,12.0143485 L142.815726,12.0378939 L142.815726,13.9562879 L138.042427,13.9546061 C138.042427,13.9546061 137.778193,13.9428333 137.439358,13.8290303 C135.630151,13.2213333 135.027652,11.3298485 135.027652,9.58972727 C135.027652,7.82213636 135.972403,5.5315 138.038441,5.4205 L142.815726,5.41881818 L142.815726,7.33721212 L138.148348,7.33721212 C137.523639,7.54127273 137.219542,8.02563636 137.081731,8.59184848 L142.656844,8.59184848 L142.656844,10.5096818" id="Fill-4" fill="#676A67"></path>
                <path d="M175.841012,4.25724242 L178.765242,4.25724242 L178.765242,2.3405303 L175.841012,2.3405303 L175.841012,4.25724242 Z M175.841012,13.9562879 L178.765242,13.9562879 L178.765242,5.27193939 L175.841012,5.27193939 L175.841012,13.9562879 Z" id="Fill-5" fill="#676A67"></path>
                <path d="M156.253515,13.9562879 L156.253515,5.16542304 L160.874766,5.16542424 C160.874766,5.16542424 163.14923,5.15365152 163.14923,7.45998485 L163.14923,9.17824242 L160.395841,9.17824242 L160.395841,7.2245303 C160.395841,7.2245303 160.227847,6.401 159.67717,6.401 C159.127061,6.401 158.767726,6.401 158.767726,6.401 L158.767726,13.9562879 L156.253515,13.9562879" id="Fill-6" fill="#676A67"></path>
                <path d="M145.205223,5.32407576 L145.205223,7.0025303 L150.449474,7.0025303 C150.449474,7.0025303 152.034879,7.08269697 152.034879,8.92092424 L147.522967,8.92092424 C147.522967,8.92092424 145.128914,8.61539394 145.083357,11.3724545 C145.044063,13.7970758 147.156798,13.9562879 147.156798,13.9562879 L153.986454,13.9562879 L153.986454,8.44104545 C153.986454,8.44104545 153.864587,5.32407576 151.791146,5.32407576 L145.205223,5.32407576 Z M151.928388,10.1206212 L151.928388,12.1965455 L147.56226,12.1965455 C147.56226,12.1965455 146.722861,12.1432879 146.722861,11.0820606 C146.722861,10.2035909 147.56226,10.1206212 147.56226,10.1206212 L151.928388,10.1206212 Z" id="Fill-7" fill="#676A67"></path>
                <polyline id="Fill-8" fill="#676A67" points="132.760591 10.8847273 126.724776 10.8847273 126.724776 1.79393939 123.720251 1.79393939 123.720251 13.838 132.760591 13.838 132.760591 10.8847273"></polyline>
                <path d="M165.41629,5.19177273 L171.051768,5.19177273 C171.051768,5.19177273 173.573382,5.02919697 173.573382,7.56089394 C173.573382,10.0931515 173.573382,13.9293788 173.573382,13.9293788 L171.434452,13.9293788 L171.434452,8.43936364 C171.434452,8.43936364 171.461217,7.10848485 170.429337,7.10848485 C169.508503,7.10848485 167.477773,7.10848485 167.477773,7.10848485 L167.477773,13.9562879 L165.41629,13.9562879 L165.41629,5.19177273" id="Fill-9" fill="#676A67"></path>
                <path d="M200.847588,5.13571212 L200.847588,14.3666515 C200.847588,14.3666515 200.786655,16.465 198.530414,16.465 L192.737763,16.465 L192.737763,14.6065909 L198.103881,14.6065909 L198.103881,13.1080909 L194.139798,13.1080909 C194.139798,13.1080909 191.457024,12.688197 191.457024,8.91195455 C191.457024,5.13571212 195.29867,5.13571212 195.29867,5.13571212 L200.847588,5.13571212 Z M198.408547,7.17351515 L198.408547,11.8489697 L196.03044,11.8489697 C196.03044,11.8489697 193.896065,11.6695758 193.896065,9.45125758 C193.896065,7.2335 195.725204,7.17351515 195.725204,7.17351515 L198.408547,7.17351515 Z" id="Fill-10" fill="#676A67"></path>
                <path d="M181.032303,5.19177273 L186.668349,5.19177273 C186.668349,5.19177273 189.189963,5.02919697 189.189963,7.56089394 C189.189963,10.0931515 189.189963,13.9293788 189.189963,13.9293788 L187.050464,13.9293788 L187.050464,8.43936364 C187.050464,8.43936364 187.077798,7.10848485 186.045349,7.10848485 C185.124516,7.10848485 183.093785,7.10848485 183.093785,7.10848485 L183.093785,13.9562879 L181.032303,13.9562879 L181.032303,5.19177273" id="Fill-11" fill="#676A67"></path>
                <path d="M169.735153,32.3548182 L162.79388,32.3548182 C162.79388,32.3548182 160.374771,32.5112273 160.374771,30.0821212 C160.374771,27.6524545 160.374771,23.9720758 160.374771,23.9720758 L162.427141,23.9720758 L162.427141,29.2389697 C162.427141,29.2389697 162.400946,30.5160303 163.391824,30.5160303 C164.274503,30.5160303 167.089394,30.5160303 167.089394,30.5160303 L167.089394,23.9462879 L169.735153,23.9462879 L169.735153,32.3548182" id="Fill-12" fill="#676A67"></path>
                <path d="M153.096941,20.5770455 L155.754089,20.5770455 L155.754089,29.0831212 C155.754089,29.0831212 155.754089,30.5373333 157.233004,30.5373333 L158.563855,30.5373333 L158.563855,32.3548182 L155.384503,32.3548182 C155.384503,32.3548182 153.096941,32.5286061 153.096941,29.8393788 L153.096941,20.5770455" id="Fill-13" fill="#676A67"></path>
                <path d="M219.703886,25.3573333 L213.115115,25.3573333 C212.591203,25.286697 212.10032,25.4122727 212.10032,26.1169545 C212.10032,26.4925606 212.178337,26.6562576 212.213644,26.711197 C212.264327,26.7308182 212.426056,26.8165909 212.501796,26.8154697 C212.784253,26.7891212 218.003448,26.7891212 218.003448,26.7891212 C218.003448,26.7891212 218.182261,26.788 218.439092,26.8401364 C219.771653,27.1109091 220.528479,28.1799848 220.528479,29.5394545 C220.528479,31.1495152 219.24831,32.3071667 217.710171,32.3565 L210.12198,32.3570606 L210.12198,30.3865303 L217.648098,30.3865303 L217.768826,30.3663485 C218.22725,30.2721667 218.523944,30.0636212 218.523944,29.5394545 C218.523944,29.0763939 218.407772,28.8459848 217.982947,28.7596515 L212.869674,28.7596515 C211.141901,29.005197 210.095784,27.7600909 210.095784,26.1169545 C210.095784,24.2305152 211.534836,23.2292727 213.23869,23.386803 L219.703886,23.386803 L219.703886,25.3573333" id="Fill-14" fill="#676A67"></path>
                <path d="M136.41545,23.1081818 L127.709959,23.1081818 C127.017484,23.0145606 126.368857,23.1810606 126.368857,24.1116667 C126.368857,24.6083636 126.471931,24.8247576 126.518058,24.8976364 C126.585256,24.9228636 126.799376,25.0366667 126.899603,25.0349848 C127.272606,25.0002273 134.16889,25.0002273 134.16889,25.0002273 C134.16889,25.0002273 134.404651,24.9985455 134.744055,25.0675 C136.504857,25.4257273 137.505416,26.8378939 137.505416,28.6346364 C137.505416,30.7615758 135.81352,32.2914697 133.781651,32.3559394 L123.754989,32.3570606 L123.754989,29.7530455 L133.699078,29.7530455 L133.858529,29.726697 C134.464445,29.6022424 134.85681,29.3264242 134.85681,28.6346364 C134.85681,28.0218939 134.703053,27.7180455 134.141556,27.6036818 L127.385361,27.6036818 C125.10805,27.617697 123.720251,26.2834545 123.720251,24.1116667 C123.720251,21.6197727 125.621712,20.2967424 127.872828,20.5047273 L136.41545,20.5047273 L136.41545,23.1081818" id="Fill-15" fill="#676A67"></path>
                <path d="M139.315762,27.5106212 C139.315762,24.8337273 141.995689,22.6636212 145.300894,22.6636212 C148.606669,22.6636212 151.286026,24.8337273 151.286026,27.5106212 C151.286026,30.1869545 148.606669,32.3570606 145.300894,32.3570606 C141.995689,32.3570606 139.315762,30.1869545 139.315762,27.5106212 Z M141.914824,27.5106212 C141.914824,25.8405758 143.430754,24.4872727 145.300894,24.4872727 C147.171604,24.4872727 148.686964,25.8405758 148.686964,27.5106212 C148.686964,29.1795455 147.171604,30.5334091 145.300894,30.5334091 C143.430754,30.5334091 141.914824,29.1795455 141.914824,27.5106212 Z" id="Fill-16" fill="#676A67"></path>
                <path d="M199.559447,23.6390758 L205.587858,23.6390758 C205.587858,23.6390758 208.285439,23.4641667 208.285439,26.1730152 C208.285439,28.881303 208.285439,32.3284697 208.285439,32.3284697 L205.997307,32.3284697 L205.997307,27.1125909 C205.997307,27.1125909 206.025781,25.6892121 204.922147,25.6892121 C203.936964,25.6892121 201.764435,25.6892121 201.764435,25.6892121 L201.764435,32.3570606 L199.559447,32.3570606 L199.559447,23.6390758" id="Fill-17" fill="#676A67"></path>
                <polygon id="Fill-18" fill="#676A67" points="180.973647 22.4242424 183.968491 22.4242424 183.968491 20.4615606 180.973647 20.4615606"></polygon>
                <polygon id="Fill-19" fill="#676A67" points="180.973647 32.3570606 183.968491 32.3570606 183.968491 23.4636061 180.973647 23.4636061"></polygon>
                <path d="M173.394568,20.5770455 L176.204904,20.5770455 L176.204904,23.6306667 L179.163301,23.6306667 L179.163301,25.5933485 L176.204904,25.5933485 L176.204904,29.0831212 C176.204904,29.0831212 176.204904,30.5373333 177.683818,30.5373333 L179.015239,30.5373333 L179.015239,32.3548182 L175.835317,32.3548182 C175.835317,32.3548182 173.547756,32.5286061 173.547756,29.8393788 L173.547756,25.4044242 L171.545498,25.5204697 L171.545498,23.6306667 L173.394568,23.6306667 L173.394568,20.5770455" id="Fill-20" fill="#676A67"></path>
                <path d="M185.778837,27.5106212 C185.778837,24.8337273 188.458764,22.6636212 191.763969,22.6636212 C195.069743,22.6636212 197.749101,24.8337273 197.749101,27.5106212 C197.749101,30.1869545 195.069743,32.3570606 191.763969,32.3570606 C188.458764,32.3570606 185.778837,30.1869545 185.778837,27.5106212 Z M188.377899,27.5106212 C188.377899,25.8405758 189.893829,24.4872727 191.763969,24.4872727 C193.634109,24.4872727 195.150608,25.8405758 195.150608,27.5106212 C195.150608,29.1795455 193.634109,30.5334091 191.763969,30.5334091 C189.893829,30.5334091 188.377899,29.1795455 188.377899,27.5106212 Z" id="Fill-21" fill="#676A67"></path>
                <polygon id="Fill-22" fill="#676A67" points="114.935603 35.8294545 116.994238 35.8294545 116.994238 1.95259091 114.935603 1.95259091"></polygon>
            </g>
        </g>
    </g>
</svg>